<svg xmlns="http://www.w3.org/2000/svg" viewBox="0 0 48 128" fill="none">
  

  
  <g transform="translate(0,0)" stroke-linecap="round" stroke-width="1.4">
    <g stroke="#D9DFDD">
      <path d="M16 12 L32 12"></path><path d="M32 12 C36 12, 38 4, 46 4"></path>
      <path d="M32 12 L46 12"></path><path d="M32 12 C36 12, 38 20, 46 20"></path>
    </g>
    <g stroke="#14232A">
      <path d="M2 4 C10 4, 12 12, 16 12"></path><path d="M2 12 L16 12"></path><path d="M2 20 C10 20, 12 12, 16 12"></path>
    </g>
  </g>

  
  <g transform="translate(0,34)" stroke-linecap="round" stroke-width="1.4">
    <g stroke="#D9DFDD">
      <path d="M32 12 C36 12, 38 4, 46 4"></path><path d="M32 12 L46 12"></path><path d="M32 12 C36 12, 38 20, 46 20"></path>
    </g>
    <g stroke="#14232A">
      <path d="M2 4 C10 4, 12 12, 16 12"></path><path d="M2 12 L16 12"></path><path d="M2 20 C10 20, 12 12, 16 12"></path>
    </g>
    <path d="M16 12 L32 12" stroke="#23617A"></path>
  </g>

  
  <g transform="translate(0,68)" stroke-linecap="round" stroke-width="1.4">
    <g stroke="#14232A">
      <path d="M2 4 C10 4, 12 12, 16 12"></path><path d="M2 12 L16 12"></path><path d="M2 20 C10 20, 12 12, 16 12"></path>
    </g>
    <path d="M16 12 L32 12" stroke="#23617A"></path>
    <path d="M32 12 C36 12, 38 4, 46 4" stroke="#23617A"></path>
    <path d="M32 12 L46 12" stroke="#B8893D"></path>
    <path d="M32 12 C36 12, 38 20, 46 20" stroke="#35684F"></path>
  </g>

  
  <g transform="translate(0,102)" stroke-linecap="round">
    <g stroke="#D9DFDD" stroke-width="1.4">
      <path d="M16 12 L32 12"></path><path d="M32 12 C36 12, 38 4, 46 4"></path>
      <path d="M32 12 L46 12"></path><path d="M32 12 C36 12, 38 20, 46 20"></path>
    </g>
    <g stroke="#14232A" stroke-width="0.86">
      <path d="M2 4 C10 4, 12 12, 16 12"></path><path d="M2 12 L16 12"></path><path d="M2 20 C10 20, 12 12, 16 12"></path>
    </g>
  </g>
</svg>